<svg xmlns="http://www.w3.org/2000/svg" viewBox="0 0 512 512" width="128" height="128">
  <rect width="512" height="512" fill="#16213e"/>
  <g fill="#e94560">
    <circle cx="128" cy="128" r="8"/>
    <circle cx="256" cy="96" r="8"/>
    <circle cx="384" cy="128" r="8"/>
    <circle cx="96" cy="256" r="8"/>
    <circle cx="256" cy="224" r="10"/>
    <circle cx="416" cy="256" r="8"/>
    <circle cx="128" cy="384" r="8"/>
    <circle cx="256" cy="416" r="8"/>
    <circle cx="384" cy="384" r="8"/>
    <circle cx="64" cy="192" r="6"/>
    <circle cx="448" cy="192" r="6"/>
    <circle cx="64" cy="320" r="6"/>
    <circle cx="448" cy="320" r="6"/>
    <circle cx="192" cy="160" r="6"/>
    <circle cx="320" cy="160" r="6"/>
    <circle cx="192" cy="352" r="6"/>
    <circle cx="320" cy="352" r="6"/>
  </g>
  <g stroke="#0f3460" stroke-width="2" fill="none" opacity="0.5">
    <line x1="128" y1="128" x2="256" y2="96"/>
    <line x1="256" y1="96" x2="384" y2="128"/>
    <line x1="96" y1="256" x2="256" y2="224"/>
    <line x1="256" y1="224" x2="416" y2="256"/>
    <line x1="128" y1="384" x2="256" y2="416"/>
    <line x1="256" y1="416" x2="384" y2="384"/>
    <line x1="128" y1="128" x2="96" y2="256"/>
    <line x1="384" y1="128" x2="416" y2="256"/>
    <line x1="96" y1="256" x2="128" y2="384"/>
    <line x1="416" y1="256" x2="384" y2="384"/>
    <line x1="128" y1="128" x2="256" y2="224"/>
    <line x1="384" y1="128" x2="256" y2="224"/>
    <line x1="128" y1="384" x2="256" y2="224"/>
    <line x1="384" y1="384" x2="256" y2="224"/>
  </g>
</svg>
